<mxfile host="Electron" modified="2024-02-26T13:49:18.596Z" agent="Mozilla/5.0 (Windows NT 10.0; Win64; x64) AppleWebKit/537.36 (KHTML, like Gecko) draw.io/21.6.8 Chrome/114.0.5735.289 Electron/25.5.0 Safari/537.36" etag="WRIZNXn01RdH_bYfj-VQ" version="21.6.8" type="device">
  <diagram name="Seite-1" id="KHInryHeTgDgYcVXuOS2">
    <mxGraphModel dx="1194" dy="814" grid="1" gridSize="10" guides="1" tooltips="1" connect="1" arrows="1" fold="1" page="1" pageScale="1" pageWidth="827" pageHeight="1169" math="0" shadow="0">
      <root>
        <mxCell id="0" />
        <mxCell id="1" parent="0" />
        <mxCell id="VTDAII8MQeXGKhfTH2uf-13" value="" style="edgeStyle=orthogonalEdgeStyle;rounded=0;orthogonalLoop=1;jettySize=auto;html=1;" edge="1" parent="1" source="VTDAII8MQeXGKhfTH2uf-4" target="VTDAII8MQeXGKhfTH2uf-9">
          <mxGeometry relative="1" as="geometry" />
        </mxCell>
        <mxCell id="VTDAII8MQeXGKhfTH2uf-16" value="" style="edgeStyle=orthogonalEdgeStyle;rounded=0;orthogonalLoop=1;jettySize=auto;html=1;" edge="1" parent="1" source="VTDAII8MQeXGKhfTH2uf-4" target="VTDAII8MQeXGKhfTH2uf-14">
          <mxGeometry relative="1" as="geometry">
            <Array as="points">
              <mxPoint x="410" y="170" />
              <mxPoint x="110" y="170" />
            </Array>
          </mxGeometry>
        </mxCell>
        <mxCell id="VTDAII8MQeXGKhfTH2uf-23" value="" style="edgeStyle=orthogonalEdgeStyle;rounded=0;orthogonalLoop=1;jettySize=auto;html=1;" edge="1" parent="1" source="VTDAII8MQeXGKhfTH2uf-4" target="VTDAII8MQeXGKhfTH2uf-21">
          <mxGeometry relative="1" as="geometry">
            <mxPoint x="620" y="260" as="targetPoint" />
          </mxGeometry>
        </mxCell>
        <mxCell id="VTDAII8MQeXGKhfTH2uf-29" value="" style="edgeStyle=orthogonalEdgeStyle;rounded=0;orthogonalLoop=1;jettySize=auto;html=1;" edge="1" parent="1" source="VTDAII8MQeXGKhfTH2uf-4" target="VTDAII8MQeXGKhfTH2uf-27">
          <mxGeometry relative="1" as="geometry" />
        </mxCell>
        <mxCell id="VTDAII8MQeXGKhfTH2uf-33" style="edgeStyle=orthogonalEdgeStyle;rounded=0;orthogonalLoop=1;jettySize=auto;html=1;" edge="1" parent="1" source="VTDAII8MQeXGKhfTH2uf-4">
          <mxGeometry relative="1" as="geometry">
            <mxPoint x="410" y="160" as="targetPoint" />
          </mxGeometry>
        </mxCell>
        <mxCell id="VTDAII8MQeXGKhfTH2uf-40" value="" style="edgeStyle=orthogonalEdgeStyle;rounded=0;orthogonalLoop=1;jettySize=auto;html=1;" edge="1" parent="1" source="VTDAII8MQeXGKhfTH2uf-4" target="VTDAII8MQeXGKhfTH2uf-38">
          <mxGeometry relative="1" as="geometry">
            <Array as="points">
              <mxPoint x="410" y="170" />
              <mxPoint x="740" y="170" />
            </Array>
          </mxGeometry>
        </mxCell>
        <mxCell id="VTDAII8MQeXGKhfTH2uf-4" value="Projektleiter" style="swimlane;fontStyle=0;childLayout=stackLayout;horizontal=1;startSize=30;horizontalStack=0;resizeParent=1;resizeParentMax=0;resizeLast=0;collapsible=1;marginBottom=0;whiteSpace=wrap;html=1;" vertex="1" parent="1">
          <mxGeometry x="340" y="80" width="140" height="60" as="geometry" />
        </mxCell>
        <mxCell id="VTDAII8MQeXGKhfTH2uf-5" value="Simon Hochhauser" style="text;strokeColor=none;fillColor=none;align=left;verticalAlign=middle;spacingLeft=4;spacingRight=4;overflow=hidden;points=[[0,0.5],[1,0.5]];portConstraint=eastwest;rotatable=0;whiteSpace=wrap;html=1;" vertex="1" parent="VTDAII8MQeXGKhfTH2uf-4">
          <mxGeometry y="30" width="140" height="30" as="geometry" />
        </mxCell>
        <mxCell id="VTDAII8MQeXGKhfTH2uf-8" value="Stellverteter" style="swimlane;fontStyle=0;childLayout=stackLayout;horizontal=1;startSize=30;horizontalStack=0;resizeParent=1;resizeParentMax=0;resizeLast=0;collapsible=1;marginBottom=0;whiteSpace=wrap;html=1;" vertex="1" parent="1">
          <mxGeometry x="550" y="80" width="140" height="60" as="geometry" />
        </mxCell>
        <mxCell id="VTDAII8MQeXGKhfTH2uf-9" value="Kevin Alonso Rodriguez" style="text;strokeColor=none;fillColor=none;align=left;verticalAlign=middle;spacingLeft=4;spacingRight=4;overflow=hidden;points=[[0,0.5],[1,0.5]];portConstraint=eastwest;rotatable=0;whiteSpace=wrap;html=1;" vertex="1" parent="VTDAII8MQeXGKhfTH2uf-8">
          <mxGeometry y="30" width="140" height="30" as="geometry" />
        </mxCell>
        <mxCell id="VTDAII8MQeXGKhfTH2uf-19" value="" style="edgeStyle=orthogonalEdgeStyle;rounded=0;orthogonalLoop=1;jettySize=auto;html=1;" edge="1" parent="1" source="VTDAII8MQeXGKhfTH2uf-14" target="VTDAII8MQeXGKhfTH2uf-17">
          <mxGeometry relative="1" as="geometry" />
        </mxCell>
        <mxCell id="VTDAII8MQeXGKhfTH2uf-14" value="Tester" style="swimlane;fontStyle=0;childLayout=stackLayout;horizontal=1;startSize=30;horizontalStack=0;resizeParent=1;resizeParentMax=0;resizeLast=0;collapsible=1;marginBottom=0;whiteSpace=wrap;html=1;" vertex="1" parent="1">
          <mxGeometry x="40" y="230" width="140" height="60" as="geometry" />
        </mxCell>
        <mxCell id="VTDAII8MQeXGKhfTH2uf-15" value="Johannes Walter" style="text;strokeColor=none;fillColor=none;align=left;verticalAlign=middle;spacingLeft=4;spacingRight=4;overflow=hidden;points=[[0,0.5],[1,0.5]];portConstraint=eastwest;rotatable=0;whiteSpace=wrap;html=1;" vertex="1" parent="VTDAII8MQeXGKhfTH2uf-14">
          <mxGeometry y="30" width="140" height="30" as="geometry" />
        </mxCell>
        <mxCell id="VTDAII8MQeXGKhfTH2uf-17" value="Stellvertreter" style="swimlane;fontStyle=0;childLayout=stackLayout;horizontal=1;startSize=30;horizontalStack=0;resizeParent=1;resizeParentMax=0;resizeLast=0;collapsible=1;marginBottom=0;whiteSpace=wrap;html=1;" vertex="1" parent="1">
          <mxGeometry x="40" y="370" width="140" height="60" as="geometry" />
        </mxCell>
        <mxCell id="VTDAII8MQeXGKhfTH2uf-18" value="Simon Hochhauser" style="text;strokeColor=none;fillColor=none;align=left;verticalAlign=middle;spacingLeft=4;spacingRight=4;overflow=hidden;points=[[0,0.5],[1,0.5]];portConstraint=eastwest;rotatable=0;whiteSpace=wrap;html=1;" vertex="1" parent="VTDAII8MQeXGKhfTH2uf-17">
          <mxGeometry y="30" width="140" height="30" as="geometry" />
        </mxCell>
        <mxCell id="VTDAII8MQeXGKhfTH2uf-26" value="" style="edgeStyle=orthogonalEdgeStyle;rounded=0;orthogonalLoop=1;jettySize=auto;html=1;" edge="1" parent="1" source="VTDAII8MQeXGKhfTH2uf-21" target="VTDAII8MQeXGKhfTH2uf-24">
          <mxGeometry relative="1" as="geometry" />
        </mxCell>
        <mxCell id="VTDAII8MQeXGKhfTH2uf-21" value="Dokumentierungs-Beauftragter" style="swimlane;fontStyle=0;childLayout=stackLayout;horizontal=1;startSize=30;horizontalStack=0;resizeParent=1;resizeParentMax=0;resizeLast=0;collapsible=1;marginBottom=0;whiteSpace=wrap;html=1;" vertex="1" parent="1">
          <mxGeometry x="210" y="230" width="140" height="60" as="geometry" />
        </mxCell>
        <mxCell id="VTDAII8MQeXGKhfTH2uf-22" value="Johannes Walter" style="text;strokeColor=none;fillColor=none;align=left;verticalAlign=middle;spacingLeft=4;spacingRight=4;overflow=hidden;points=[[0,0.5],[1,0.5]];portConstraint=eastwest;rotatable=0;whiteSpace=wrap;html=1;" vertex="1" parent="VTDAII8MQeXGKhfTH2uf-21">
          <mxGeometry y="30" width="140" height="30" as="geometry" />
        </mxCell>
        <mxCell id="VTDAII8MQeXGKhfTH2uf-24" value="Stellvertreter" style="swimlane;fontStyle=0;childLayout=stackLayout;horizontal=1;startSize=30;horizontalStack=0;resizeParent=1;resizeParentMax=0;resizeLast=0;collapsible=1;marginBottom=0;whiteSpace=wrap;html=1;" vertex="1" parent="1">
          <mxGeometry x="210" y="370" width="140" height="60" as="geometry" />
        </mxCell>
        <mxCell id="VTDAII8MQeXGKhfTH2uf-25" value="Simon Hochhauser" style="text;strokeColor=none;fillColor=none;align=left;verticalAlign=middle;spacingLeft=4;spacingRight=4;overflow=hidden;points=[[0,0.5],[1,0.5]];portConstraint=eastwest;rotatable=0;whiteSpace=wrap;html=1;" vertex="1" parent="VTDAII8MQeXGKhfTH2uf-24">
          <mxGeometry y="30" width="140" height="30" as="geometry" />
        </mxCell>
        <mxCell id="VTDAII8MQeXGKhfTH2uf-32" value="" style="edgeStyle=orthogonalEdgeStyle;rounded=0;orthogonalLoop=1;jettySize=auto;html=1;" edge="1" parent="1" source="VTDAII8MQeXGKhfTH2uf-27" target="VTDAII8MQeXGKhfTH2uf-30">
          <mxGeometry relative="1" as="geometry" />
        </mxCell>
        <mxCell id="VTDAII8MQeXGKhfTH2uf-27" value="Frontend" style="swimlane;fontStyle=0;childLayout=stackLayout;horizontal=1;startSize=30;horizontalStack=0;resizeParent=1;resizeParentMax=0;resizeLast=0;collapsible=1;marginBottom=0;whiteSpace=wrap;html=1;" vertex="1" parent="1">
          <mxGeometry x="440" y="230" width="140" height="60" as="geometry" />
        </mxCell>
        <mxCell id="VTDAII8MQeXGKhfTH2uf-28" value="Kevin Alonso Rodriguez" style="text;strokeColor=none;fillColor=none;align=left;verticalAlign=middle;spacingLeft=4;spacingRight=4;overflow=hidden;points=[[0,0.5],[1,0.5]];portConstraint=eastwest;rotatable=0;whiteSpace=wrap;html=1;" vertex="1" parent="VTDAII8MQeXGKhfTH2uf-27">
          <mxGeometry y="30" width="140" height="30" as="geometry" />
        </mxCell>
        <mxCell id="VTDAII8MQeXGKhfTH2uf-30" value="Stellvertreter" style="swimlane;fontStyle=0;childLayout=stackLayout;horizontal=1;startSize=30;horizontalStack=0;resizeParent=1;resizeParentMax=0;resizeLast=0;collapsible=1;marginBottom=0;whiteSpace=wrap;html=1;" vertex="1" parent="1">
          <mxGeometry x="440" y="370" width="140" height="60" as="geometry" />
        </mxCell>
        <mxCell id="VTDAII8MQeXGKhfTH2uf-31" value="Raphael Abfalter" style="text;strokeColor=none;fillColor=none;align=left;verticalAlign=middle;spacingLeft=4;spacingRight=4;overflow=hidden;points=[[0,0.5],[1,0.5]];portConstraint=eastwest;rotatable=0;whiteSpace=wrap;html=1;" vertex="1" parent="VTDAII8MQeXGKhfTH2uf-30">
          <mxGeometry y="30" width="140" height="30" as="geometry" />
        </mxCell>
        <mxCell id="VTDAII8MQeXGKhfTH2uf-43" value="" style="edgeStyle=orthogonalEdgeStyle;rounded=0;orthogonalLoop=1;jettySize=auto;html=1;" edge="1" parent="1" source="VTDAII8MQeXGKhfTH2uf-38" target="VTDAII8MQeXGKhfTH2uf-41">
          <mxGeometry relative="1" as="geometry" />
        </mxCell>
        <mxCell id="VTDAII8MQeXGKhfTH2uf-38" value="Backend" style="swimlane;fontStyle=0;childLayout=stackLayout;horizontal=1;startSize=30;horizontalStack=0;resizeParent=1;resizeParentMax=0;resizeLast=0;collapsible=1;marginBottom=0;whiteSpace=wrap;html=1;" vertex="1" parent="1">
          <mxGeometry x="670" y="230" width="140" height="60" as="geometry" />
        </mxCell>
        <mxCell id="VTDAII8MQeXGKhfTH2uf-39" value="Raphael Abfalter" style="text;strokeColor=none;fillColor=none;align=left;verticalAlign=middle;spacingLeft=4;spacingRight=4;overflow=hidden;points=[[0,0.5],[1,0.5]];portConstraint=eastwest;rotatable=0;whiteSpace=wrap;html=1;" vertex="1" parent="VTDAII8MQeXGKhfTH2uf-38">
          <mxGeometry y="30" width="140" height="30" as="geometry" />
        </mxCell>
        <mxCell id="VTDAII8MQeXGKhfTH2uf-41" value="Stellvertreter" style="swimlane;fontStyle=0;childLayout=stackLayout;horizontal=1;startSize=30;horizontalStack=0;resizeParent=1;resizeParentMax=0;resizeLast=0;collapsible=1;marginBottom=0;whiteSpace=wrap;html=1;" vertex="1" parent="1">
          <mxGeometry x="670" y="370" width="140" height="60" as="geometry" />
        </mxCell>
        <mxCell id="VTDAII8MQeXGKhfTH2uf-42" value="Kevin Alonso Rodriguez" style="text;strokeColor=none;fillColor=none;align=left;verticalAlign=middle;spacingLeft=4;spacingRight=4;overflow=hidden;points=[[0,0.5],[1,0.5]];portConstraint=eastwest;rotatable=0;whiteSpace=wrap;html=1;" vertex="1" parent="VTDAII8MQeXGKhfTH2uf-41">
          <mxGeometry y="30" width="140" height="30" as="geometry" />
        </mxCell>
      </root>
    </mxGraphModel>
  </diagram>
</mxfile>
